<svg xmlns="http://www.w3.org/2000/svg" viewBox="0 0 800 400" preserveAspectRatio="xMidYMid slice">
  <defs>
    <style>
      @keyframes scrollDown {
        0% {
          transform: translate(0, 0);
        }
        100% {
          transform: translate(0, 210px);
        }
      }

      .pattern-group {
        animation: scrollDown 6s linear infinite;
      }

      .header-text {
        font-family: 'Abril Fatface', Georgia, serif;
        font-size: 80px;
        font-weight: normal;
        fill: #363636;
        text-anchor: middle;
        dominant-baseline: middle;
      }
    </style>

    <!-- Define the square and hexagon pattern -->
    <pattern id="shapePattern" x="0" y="0" width="210" height="210" patternUnits="userSpaceOnUse">
      <!-- First square and hexagon pair - diagonal offset -->
      <g transform="translate(50, 50)">
        <rect x="-35" y="-35" width="70" height="70" fill="#e3b730"/>
      </g>
      <g transform="translate(160, 160)">
        <path class="hexagon" d="M -40,0 L -20,-34.6 L 20,-34.6 L 40,0 L 20,34.6 L -20,34.6 Z" fill="#91bf90"/>
      </g>

      <!-- Edge wrapping pairs to prevent cropping -->
      <!-- Top wrap (from bottom) -->
      <g transform="translate(50, -160)">
        <rect x="-35" y="-35" width="70" height="70" fill="#e3b730"/>
      </g>
      <g transform="translate(160, -50)">
        <path class="hexagon" d="M -40,0 L -20,-34.6 L 20,-34.6 L 40,0 L 20,34.6 L -20,34.6 Z" fill="#91bf90"/>
      </g>

      <!-- Bottom wrap (from top) -->
      <g transform="translate(50, 260)">
        <rect x="-35" y="-35" width="70" height="70" fill="#e3b730"/>
      </g>
      <g transform="translate(160, 370)">
        <path class="hexagon" d="M -40,0 L -20,-34.6 L 20,-34.6 L 40,0 L 20,34.6 L -20,34.6 Z" fill="#91bf90"/>
      </g>

      <!-- Side wraps for horizontal tiling -->
      <g transform="translate(-160, 50)">
        <rect x="-35" y="-35" width="70" height="70" fill="#e3b730"/>
      </g>
      <g transform="translate(-50, 160)">
        <path class="hexagon" d="M -40,0 L -20,-34.6 L 20,-34.6 L 40,0 L 20,34.6 L -20,34.6 Z" fill="#91bf90"/>
      </g>

      <g transform="translate(260, 50)">
        <rect x="-35" y="-35" width="70" height="70" fill="#e3b730"/>
      </g>
      <g transform="translate(370, 160)">
        <path class="hexagon" d="M -40,0 L -20,-34.6 L 20,-34.6 L 40,0 L 20,34.6 L -20,34.6 Z" fill="#91bf90"/>
      </g>
    </pattern>
  </defs>

  <!-- Background -->
  <rect width="800" height="400" fill="#fff8ea"/>

  <!-- Animated pattern - create multiple layers for seamless loop -->
  <g class="pattern-group">
    <rect x="-120" y="-120" width="1040" height="640" fill="url(#shapePattern)"/>
  </g>
  <g class="pattern-group">
    <rect x="-120" y="-330" width="1040" height="640" fill="url(#shapePattern)"/>
  </g>

</svg>
